<svg width="18" height="18" viewBox="0 0 18 18" fill="none" xmlns="http://www.w3.org/2000/svg">
<path d="M14.6978 10.6956L11.359 14.0343C9.2635 16.1291 5.86589 16.1293 3.7709 14.0343C1.67532 11.9388 1.67533 8.54118 3.7709 6.4456L6.69944 3.51771C8.19629 2.02031 10.6229 2.02007 12.1198 3.51742C13.6166 5.01378 13.6165 7.44116 12.1199 8.93785L9.26317 11.7945C8.35268 12.705 6.87709 12.705 5.96661 11.7945C5.05613 10.884 5.05613 9.40845 5.9666 8.49796L8.66239 5.80214C8.97481 5.48972 9.48134 5.48971 9.79377 5.80213C10.1062 6.11455 10.1062 6.62108 9.79377 6.9335L7.09798 9.62933C6.81234 9.91498 6.81234 10.3775 7.09798 10.6632C7.38362 10.9488 7.84615 10.9488 8.1318 10.6632L10.9885 7.80651C11.8606 6.93438 11.8604 5.52034 10.9887 4.64907C10.1167 3.7766 8.70313 3.77631 7.83111 4.64878L4.90227 7.57697C3.4316 9.04772 3.43156 11.4323 4.90227 12.903C6.3723 14.373 8.75691 14.3732 10.2278 12.9029L13.5664 9.56424C13.8788 9.25182 14.3853 9.25182 14.6978 9.56424C15.0102 9.87666 15.0102 10.3832 14.6978 10.6956Z" fill="black"/>
</svg>
