<svg width="36" height="36" viewBox="0 0 36 36" fill="none" xmlns="http://www.w3.org/2000/svg">
<path fill-rule="evenodd" clip-rule="evenodd" d="M18 4.23529C10.398 4.23529 4.23529 10.398 4.23529 18C4.23529 25.602 10.398 31.7647 18 31.7647C20.4919 31.7647 22.8232 31.1044 24.8352 29.9508C25.8498 29.369 27.1439 29.7199 27.7257 30.7345C28.3074 31.7491 27.9565 33.0432 26.9419 33.625C24.3057 35.1365 21.2505 36 18 36C8.05888 36 0 27.9411 0 18C0 8.05888 8.05888 0 18 0C27.9411 0 36 8.05888 36 18C36 19.6043 35.7896 21.1626 35.3937 22.6476L35.3918 22.6547L35.3654 22.7523C34.6048 25.6439 31.7858 27.37 29.044 27.37C25.4139 27.37 22.9295 24.4016 22.9295 21.0503C22.9295 20.4176 23.0415 19.85 23.1709 19.3799L23.2174 19.1922C23.304 18.8108 23.3502 18.4121 23.3502 18C23.3502 15.0452 20.9548 12.6498 18 12.6498C15.0452 12.6498 12.6498 15.0452 12.6498 18C12.6498 20.9548 15.0452 23.3502 18 23.3502C18.3687 23.3502 18.7265 23.3132 19.0707 23.2435C20.217 23.0112 21.3345 23.752 21.5668 24.8983C21.7992 26.0445 21.0583 27.1621 19.912 27.3944C19.2925 27.5199 18.6528 27.5855 18 27.5855C12.7061 27.5855 8.41449 23.2939 8.41449 18C8.41449 12.7061 12.7061 8.41449 18 8.41449C23.2939 8.41449 27.5855 12.7061 27.5855 18C27.5855 18.7398 27.5013 19.4625 27.3411 20.1582L27.3372 20.175L27.2675 20.4568L27.2589 20.4873C27.1902 20.7331 27.1648 20.9111 27.1648 21.0503C27.1648 22.3461 28.0269 23.1347 29.044 23.1347C30.2096 23.1347 31.0829 22.3891 31.2702 21.6721L31.2725 21.6633L31.3014 21.5566C31.3017 21.5555 31.3019 21.5544 31.3022 21.5533C31.6035 20.4221 31.7647 19.2315 31.7647 18C31.7647 10.398 25.602 4.23529 18 4.23529Z" fill="white"/>
</svg>
