<svg width="80" height="80" viewBox="0 0 80 80" fill="none" xmlns="http://www.w3.org/2000/svg">
<path fill-rule="evenodd" clip-rule="evenodd" d="M6.39824 51.6588C8.52238 51.0519 10.7363 52.2819 11.3432 54.4061L14.271 64.6533C15.0069 67.2291 17.3613 69.0049 20.0401 69.0049H59.9541C62.633 69.0049 64.9873 67.2291 65.7233 64.6533L68.651 54.4061C69.2579 52.2819 71.4719 51.0519 73.596 51.6588C75.7202 52.2657 76.9501 54.4797 76.3432 56.6038L73.4155 66.851C71.6982 72.8613 66.2048 77.0049 59.9541 77.0049H20.0401C13.7894 77.0049 8.29601 72.8613 6.5788 66.851L3.65103 56.6038C3.04413 54.4797 4.2741 52.2657 6.39824 51.6588Z" fill="#2C2C2C" fill-opacity="0.15"/>
<path fill-rule="evenodd" clip-rule="evenodd" d="M15.09 30.3829C15.7315 28.9373 17.1646 28.0053 18.7462 28.0053L27.0933 28.0053L27.0933 16.8106C27.0931 15.0973 27.0929 13.5058 27.2356 12.1874C27.3915 10.747 27.7552 9.16703 28.8082 7.71533C29.3654 6.94724 30.0405 6.27211 30.8086 5.71493C32.2603 4.66185 33.8403 4.29818 35.2807 4.14231C36.5991 3.99963 38.1905 3.9998 39.9039 3.99999L40.2733 3.99999C41.9866 3.9998 43.5781 3.99963 44.8965 4.14231C46.3369 4.29818 47.9169 4.66185 49.3686 5.71493C50.1366 6.27211 50.8118 6.94724 51.369 7.71533C52.422 9.16703 52.7857 10.747 52.9416 12.1874C53.0842 13.5058 53.0841 15.0972 53.0839 16.8106C53.0839 16.872 53.0839 16.9336 53.0839 16.9953L53.0839 28.0053L61.2792 28.0053C62.861 28.0053 64.2942 28.9375 64.9356 30.3835C65.577 31.8294 65.306 33.5175 64.2443 34.6901L42.9711 58.1848C42.2126 59.0224 41.1353 59.5002 40.0053 59.5C38.8753 59.4998 37.7981 59.0217 37.04 58.1838L15.7802 34.6892C14.719 33.5164 14.4485 31.8285 15.09 30.3829ZM40.0069 49.5394L52.2613 36.0053L49.0839 36.0053C48.023 36.0053 47.0056 35.5839 46.2555 34.8338C45.5053 34.0836 45.0839 33.0662 45.0839 32.0053L45.0839 16.9953C45.0839 15.0337 45.0784 13.8834 44.988 13.0481C44.9441 12.6421 44.8915 12.4491 44.8672 12.3784C44.8197 12.3185 44.7654 12.2642 44.7055 12.2166C44.6348 12.1924 44.4418 12.1398 44.0358 12.0959C43.2005 12.0055 42.0502 12 40.0886 12C38.127 12 36.9767 12.0055 36.1414 12.0959C35.7354 12.1398 35.5424 12.1924 35.4717 12.2166C35.4118 12.2642 35.3575 12.3185 35.31 12.3784C35.2857 12.4491 35.2331 12.6421 35.1892 13.0481C35.0988 13.8834 35.0933 15.0337 35.0933 16.9953L35.0933 32.0053C35.0933 33.0662 34.6719 34.0836 33.9217 34.8338C33.1716 35.5839 32.1542 36.0053 31.0933 36.0053L27.7602 36.0053L40.0069 49.5394Z" fill="#2C2C2C" fill-opacity="0.15"/>
</svg>
