<svg width="18" height="18" viewBox="0 0 18 18" fill="none" xmlns="http://www.w3.org/2000/svg">
<path fill-rule="evenodd" clip-rule="evenodd" d="M2.19932 4.99922C2.19932 3.45282 3.45292 2.19922 4.99932 2.19922H9.17075C9.91336 2.19922 10.6256 2.49422 11.1507 3.01933L14.9791 6.8478C15.5042 7.3729 15.7992 8.08509 15.7992 8.82769V12.9992C15.7992 14.5456 14.5456 15.7992 12.9992 15.7992H4.99922C3.4528 15.7992 2.19919 14.5456 2.19922 12.9992L2.19932 4.99922ZM3.79932 4.99922C3.79932 4.33648 4.33658 3.79922 4.99932 3.79922H8.19918V7.99922C8.19918 8.99333 9.00507 9.79922 9.99918 9.79922H14.1992V12.9992C14.1992 13.662 13.6619 14.1992 12.9992 14.1992H4.99922C4.33647 14.1992 3.79921 13.6619 3.79922 12.9992L3.79932 4.99922ZM13.8477 7.97917L10.0193 4.15069C9.9524 4.08382 9.87845 4.02565 9.79918 3.97693V7.99922C9.79918 8.10968 9.88872 8.19922 9.99918 8.19922H14.0214C13.9727 8.11997 13.9146 8.04603 13.8477 7.97917Z" fill="black"/>
</svg>
