<svg width="34" height="34" viewBox="0 0 34 34" fill="none" xmlns="http://www.w3.org/2000/svg">
<path fill-rule="evenodd" clip-rule="evenodd" d="M17 4C9.8203 4 4 9.8203 4 17C4 24.1797 9.8203 30 17 30C19.3535 30 21.5552 29.3764 23.4555 28.2868C24.4137 27.7374 25.6359 28.0688 26.1854 29.0271C26.7348 29.9853 26.4034 31.2075 25.4452 31.7569C22.9554 33.1845 20.0699 34 17 34C7.61116 34 0 26.3888 0 17C0 7.61116 7.61116 0 17 0C26.3888 0 34 7.61116 34 17C34 18.5151 33.8013 19.9869 33.4274 21.3894L33.4256 21.3961L33.4007 21.4883C32.6823 24.2193 30.0199 25.8494 27.4305 25.8494C24.0021 25.8494 21.6556 23.0459 21.6556 19.8808C21.6556 19.2833 21.7615 18.7472 21.8836 18.3032L21.9275 18.126C22.0093 17.7658 22.053 17.3892 22.053 17C22.053 14.2093 19.7907 11.947 17 11.947C14.2093 11.947 11.947 14.2093 11.947 17C11.947 19.7907 14.2093 22.053 17 22.053C17.3482 22.053 17.6861 22.0181 18.0113 21.9522C19.0938 21.7328 20.1493 22.4325 20.3687 23.515C20.5881 24.5976 19.8884 25.653 18.8058 25.8725C18.2206 25.9911 17.6165 26.053 17 26.053C12.0002 26.053 7.94702 21.9998 7.94702 17C7.94702 12.0002 12.0002 7.94702 17 7.94702C21.9998 7.94702 26.053 12.0002 26.053 17C26.053 17.6987 25.9735 18.3813 25.8221 19.0383L25.8185 19.0541L25.7526 19.3203L25.7446 19.3491C25.6797 19.5812 25.6556 19.7493 25.6556 19.8808C25.6556 21.1047 26.4699 21.8494 27.4305 21.8494C28.5313 21.8494 29.3561 21.1452 29.533 20.4681L29.5351 20.4598L29.5624 20.359C29.5627 20.3579 29.563 20.3569 29.5632 20.3559C29.8478 19.2875 30 18.1631 30 17C30 9.8203 24.1797 4 17 4Z" fill="black"/>
</svg>
