<svg width="18" height="18" viewBox="0 0 18 18" fill="none" xmlns="http://www.w3.org/2000/svg">
<path fill-rule="evenodd" clip-rule="evenodd" d="M4 4.6C4 3.16406 5.16406 2 6.6 2H11.4C12.8359 2 14 3.16406 14 4.6V5.06957C15.1467 5.34044 16 6.37057 16 7.6V11.4C16 12.8359 14.8359 14 13.4 14H13C13 15.1046 12.1046 16 11 16H7C5.89543 16 5 15.1046 5 14H4.6C3.16406 14 2 12.8359 2 11.4V7.6C2 6.37057 2.85332 5.34044 4 5.06957V4.6ZM11.4 3.6H6.6C6.04771 3.6 5.6 4.04772 5.6 4.6V5.00248H12.4V4.6C12.4 4.04772 11.9523 3.6 11.4 3.6ZM13.4 6.6H4.6C4.04772 6.6 3.6 7.04772 3.6 7.6V11.4C3.6 11.9523 4.04772 12.4 4.6 12.4H5V12C5 10.8954 5.89543 10 7 10H11C12.1046 10 13 10.8954 13 12V12.4H13.4C13.9523 12.4 14.4 11.9523 14.4 11.4V7.6C14.4 7.04772 13.9523 6.6 13.4 6.6ZM11 11.6H7C6.77909 11.6 6.6 11.7791 6.6 12V14C6.6 14.2209 6.77909 14.4 7 14.4H11C11.2209 14.4 11.4 14.2209 11.4 14V12C11.4 11.7791 11.2209 11.6 11 11.6Z" fill="#2C2C2C" fill-opacity="0.65"/>
</svg>
