<svg width="18" height="18" viewBox="0 0 18 18" fill="none" xmlns="http://www.w3.org/2000/svg">
<path fill-rule="evenodd" clip-rule="evenodd" d="M2.99922 10.1992C3.44105 10.1992 3.79922 10.5574 3.79922 10.9992V11.9992C3.79922 12.662 4.33648 13.1992 4.99922 13.1992H12.9992C13.662 13.1992 14.1992 12.662 14.1992 11.9992V10.9992C14.1992 10.5574 14.5574 10.1992 14.9992 10.1992C15.441 10.1992 15.7992 10.5574 15.7992 10.9992V11.9992C15.7992 13.5456 14.5456 14.7992 12.9992 14.7992H4.99922C3.45282 14.7992 2.19922 13.5456 2.19922 11.9992V10.9992C2.19922 10.5574 2.55739 10.1992 2.99922 10.1992Z" fill="#2C2C2C" fill-opacity="0.65"/>
<path fill-rule="evenodd" clip-rule="evenodd" d="M8.99922 2.19922C9.44105 2.19922 9.79922 2.55739 9.79922 2.99922V9.06785L11.4335 7.43353C11.746 7.12111 12.2525 7.12111 12.5649 7.43353C12.8773 7.74595 12.8773 8.25248 12.5649 8.5649L9.5649 11.5649C9.25248 11.8773 8.74595 11.8773 8.43353 11.5649L5.43353 8.5649C5.12111 8.25248 5.12111 7.74595 5.43353 7.43353C5.74595 7.12111 6.25248 7.12111 6.5649 7.43353L8.19922 9.06785V2.99922C8.19922 2.55739 8.55739 2.19922 8.99922 2.19922Z" fill="#2C2C2C" fill-opacity="0.65"/>
</svg>
