<svg width="18" height="18" viewBox="0 0 18 18" fill="none" xmlns="http://www.w3.org/2000/svg">
<path fill-rule="evenodd" clip-rule="evenodd" d="M2.19922 7.99922C2.19922 6.45282 3.45282 5.19922 4.99922 5.19922H5.19922V4.99922C5.19922 3.45282 6.45282 2.19922 7.99922 2.19922H12.9992C14.5456 2.19922 15.7992 3.45282 15.7992 4.99922V9.99922C15.7992 11.5456 14.5456 12.7992 12.9992 12.7992H12.7992V12.9992C12.7992 14.5456 11.5456 15.7992 9.99922 15.7992H4.99922C3.45282 15.7992 2.19922 14.5456 2.19922 12.9992V7.99922ZM3.79922 7.99922C3.79922 7.33648 4.33648 6.79922 4.99922 6.79922H9.99922C10.662 6.79922 11.1992 7.33648 11.1992 7.99922V12.9992C11.1992 13.662 10.662 14.1992 9.99922 14.1992H4.99922C4.33648 14.1992 3.79922 13.662 3.79922 12.9992V7.99922ZM9.99922 5.19922C11.5456 5.19922 12.7992 6.45282 12.7992 7.99922V11.1992H12.9992C13.662 11.1992 14.1992 10.662 14.1992 9.99922V4.99922C14.1992 4.33648 13.662 3.79922 12.9992 3.79922H7.99922C7.33648 3.79922 6.79922 4.33648 6.79922 4.99922V5.19922H9.99922Z" fill="#2C2C2C" fill-opacity="0.65"/>
</svg>
