<svg width="18" height="18" viewBox="0 0 18 18" fill="none" xmlns="http://www.w3.org/2000/svg">
<path fill-rule="evenodd" clip-rule="evenodd" d="M7.00313 3.19922H5.00313C3.45673 3.19922 2.20312 4.45282 2.20312 5.99922V11.9992C2.20312 13.5456 3.45673 14.7992 5.00313 14.7992H13.0031C14.5495 14.7992 15.8031 13.5456 15.8031 11.9992V9.99922C15.8031 9.13823 15.4145 8.368 14.8031 7.85437V6.99922C14.8031 5.45282 13.5495 4.19922 12.0031 4.19922H9.14797C8.63434 3.58783 7.86412 3.19922 7.00313 3.19922ZM8.20312 5.99922C8.20312 5.33648 7.66587 4.79922 7.00313 4.79922H5.00313C4.34038 4.79922 3.80313 5.33648 3.80313 5.99922V11.9992C3.80313 12.662 4.34038 13.1992 5.00313 13.1992H13.0031C13.6659 13.1992 14.2031 12.662 14.2031 11.9992V9.99922C14.2031 9.33648 13.6659 8.79922 13.0031 8.79922H11.0031C9.45673 8.79922 8.20312 7.54562 8.20312 5.99922ZM11.0031 7.19922H13.0031C13.0704 7.19922 13.1371 7.20159 13.2031 7.20625V6.99922C13.2031 6.33648 12.6659 5.79922 12.0031 5.79922H9.79609C9.80075 5.86528 9.80313 5.93197 9.80313 5.99922C9.80313 6.66196 10.3404 7.19922 11.0031 7.19922Z" fill="#2C2C2C" fill-opacity="0.65"/>
</svg>
