<svg width="18" height="18" viewBox="0 0 18 18" fill="none" xmlns="http://www.w3.org/2000/svg">
<path fill-rule="evenodd" clip-rule="evenodd" d="M12.8477 5.15069C12.3791 4.68206 11.6193 4.68206 11.1507 5.15069L10.1306 6.17079L11.8276 7.86785L12.8477 6.84775C13.3164 6.37912 13.3164 5.61932 12.8477 5.15069ZM10.6963 8.99922L8.99922 7.30216L4.79922 11.5022L4.79922 13.1992H6.49627L10.6963 8.99922ZM10.0193 4.01932C11.1128 2.92585 12.8856 2.92585 13.9791 4.01932C15.0726 5.11279 15.0726 6.88565 13.9791 7.97912L7.39333 14.5649C7.2433 14.7149 7.03982 14.7992 6.82764 14.7992H3.99922C3.55739 14.7992 3.19922 14.441 3.19922 13.9992L3.19922 11.1708C3.19922 10.9586 3.2835 10.7551 3.43353 10.6051L10.0193 4.01932Z" fill="#2C2C2C" fill-opacity="0.65"/>
</svg>
