<svg width="18" height="18" viewBox="0 0 18 18" fill="none" xmlns="http://www.w3.org/2000/svg">
<path fill-rule="evenodd" clip-rule="evenodd" d="M4 4C3.44772 4 3 4.44772 3 5V13C3 13.5523 3.44772 14 4 14H14C14.5523 14 15 13.5523 15 13V10C15 9.44772 14.5523 9 14 9H10.0001C8.34321 9 7.00007 7.65685 7.00007 6V5C7.00007 4.44772 6.55235 4 6.00007 4H4ZM1 5C1 3.34314 2.34315 2 4 2H6.00007C6.88857 2 7.68685 2.38625 8.23618 3H13C14.6569 3 16 4.34315 16 6V7.76389C16.6137 8.31321 17 9.1115 17 10V13C17 14.6569 15.6569 16 14 16H4C2.34315 16 1 14.6569 1 13V5ZM14 7V6C14 5.44772 13.5523 5 13 5H9.00007V6C9.00007 6.55229 9.44778 7 10.0001 7H14Z" fill="black"/>
</svg>
