<svg width="18" height="18" viewBox="0 0 18 18" fill="none" xmlns="http://www.w3.org/2000/svg">
<path fill-rule="evenodd" clip-rule="evenodd" d="M5.0001 3C3.89553 3 3.0001 3.89543 3.0001 5L3 13C2.99998 14.1045 3.89541 15 5 15H12.9999C14.1045 15 14.9999 14.1046 14.9999 13V10H9.99994C8.89537 10 7.99994 9.10457 7.99994 8V3H5.0001ZM8.97446 1.00032C8.95764 1.00011 8.9408 1 8.92396 1H5.0001C2.79097 1 1.00011 2.79085 1.0001 4.99999C1.0001 4.99998 1.0001 4.99999 1.0001 4.99999L1 12.9999C0.999956 15.2091 2.79083 17 5 17H12.9999C15.2091 17 16.9999 15.2091 16.9999 13V9.07603C16.9999 9.05917 16.9998 9.04233 16.9996 9.0255C16.9998 9.01702 16.9999 9.00852 16.9999 9C16.9999 8.97405 16.999 8.94833 16.997 8.92288C16.9585 7.91766 16.5423 6.96158 15.8284 6.24761L11.7524 2.17159C11.0384 1.45759 10.0823 1.04139 9.07702 1.00293C9.05158 1.00099 9.02588 1 8.99994 1C8.99142 1 8.98293 1.00011 8.97446 1.00032ZM9.99994 3.31409V8H14.6858C14.6084 7.87869 14.5175 7.76518 14.4142 7.66182L10.3382 3.58579C10.2348 3.48242 10.1213 3.39153 9.99994 3.31409Z" fill="black"/>
</svg>
