<svg width="18" height="18" viewBox="0 0 18 18" fill="none" xmlns="http://www.w3.org/2000/svg">
<path fill-rule="evenodd" clip-rule="evenodd" d="M16.7071 1.29292C16.9701 1.55595 17.0654 1.94325 16.9545 2.2983L12.5795 16.2983C12.4521 16.706 12.0799 16.9877 11.6529 16.9996C11.226 17.0116 10.8386 16.751 10.6887 16.3511L8.86168 11.4792C8.45605 10.3975 7.60255 9.54398 6.52086 9.13835L1.64888 7.31136C1.24898 7.16139 0.988461 6.77401 1.00039 6.34709C1.01233 5.92016 1.29408 5.54794 1.70173 5.42055L15.7017 1.04555C16.0568 0.934592 16.4441 1.02989 16.7071 1.29292ZM5.07737 6.46104L7.22311 7.26569C8.84565 7.87414 10.1259 9.15439 10.7343 10.7769L11.539 12.9227L14.4761 3.52394L5.07737 6.46104Z" fill="black"/>
</svg>
