<svg width="18" height="18" viewBox="0 0 18 18" fill="none" xmlns="http://www.w3.org/2000/svg">
<g clip-path="url(#clip0_12801_10942)">
<path fill-rule="evenodd" clip-rule="evenodd" d="M10.331 0.0564281C10.7318 0.197003 11 0.575368 11 1.00006V5.00006C11 5.55234 11.4477 6.00006 12 6.00006L16 6.00006C16.3844 6.00006 16.7348 6.2204 16.9013 6.56687C17.0678 6.91333 17.021 7.32458 16.7809 7.62475L8.78088 17.6248C8.51558 17.9564 8.06975 18.0843 7.669 17.9437C7.26826 17.8031 7.00001 17.4247 7.00001 17.0001L7.00001 13.0001C7.00001 12.4478 6.5523 12.0001 6.00001 12.0001H2.00001C1.6156 12.0001 1.26523 11.7797 1.09871 11.4332C0.932186 11.0868 0.979005 10.6755 1.21914 10.3754L9.21914 0.375361C9.48444 0.0437355 9.93027 -0.0841467 10.331 0.0564281ZM4.08063 10.0001H6.00001C7.65686 10.0001 9.00001 11.3432 9.00001 13.0001V14.1493L13.9194 8.00006H12C10.3432 8.00006 9.00001 6.65691 9.00001 5.00006V3.85084L4.08063 10.0001Z" fill="black"/>
</g>
<defs>
<clipPath id="clip0_12801_10942">
<rect width="18" height="18" fill="white"/>
</clipPath>
</defs>
</svg>
