<svg width="18" height="18" viewBox="0 0 18 18" fill="none" xmlns="http://www.w3.org/2000/svg">
<path fill-rule="evenodd" clip-rule="evenodd" d="M5.00042 3C3.89585 3 3.00042 3.89543 3.00042 5L3.0004 6.34067L8.60634 8.74321C8.85789 8.85102 9.14263 8.85102 9.39418 8.74321L15.0003 6.3406V5C15.0003 3.89543 14.1048 3 13.0003 3H5.00042ZM17.0003 6.97696V5C17.0003 2.79086 15.2094 1 13.0003 1H5.00042C2.79128 1 1.00042 2.79085 1.00042 4.99999C1.00042 4.99998 1.00042 4.99999 1.00042 4.99999L1.00039 6.97162C0.999868 6.99026 0.999871 7.00887 1.00039 7.02742L1.00032 12.9999C1.00027 15.2091 2.79115 17 5.00032 17H13.0003C15.2094 17 17.0003 15.2091 17.0003 13V7.0221C17.0006 7.00708 17.0006 6.99203 17.0003 6.97696ZM15.0003 8.51654L10.182 10.5815C9.42737 10.9049 8.57315 10.9049 7.8185 10.5815L3.00037 8.51659L3.00032 13C3.00029 14.1045 3.89573 15 5.00032 15H13.0003C14.1048 15 15.0003 14.1046 15.0003 13V8.51654Z" fill="black"/>
</svg>
