<svg width="16" height="16" viewBox="0 0 16 16" fill="none" xmlns="http://www.w3.org/2000/svg">
<path fill-rule="evenodd" clip-rule="evenodd" d="M6 2C3.79086 2 2 3.79086 2 6C2 8.20914 3.79086 10 6 10C8.20914 10 10 8.20914 10 6C10 3.79086 8.20914 2 6 2ZM0 6C0 2.68629 2.68629 0 6 0C9.31371 0 12 2.68629 12 6C12 7.29584 11.5892 8.49574 10.8907 9.47656L15.1916 13.7783C15.582 14.1689 15.582 14.8021 15.1914 15.1925C14.8008 15.583 14.1677 15.5829 13.7772 15.1924L9.47651 10.8908C8.4957 11.5892 7.29582 12 6 12C2.68629 12 0 9.31371 0 6Z" fill="#2C2C2C" fill-opacity="0.65"/>
</svg>
