<svg width="18" height="18" viewBox="0 0 18 18" fill="none" xmlns="http://www.w3.org/2000/svg">
<path d="M14 10H8.41421L9.70711 11.2929C10.0976 11.6834 10.0976 12.3166 9.70711 12.7071C9.31658 13.0976 8.68342 13.0976 8.29289 12.7071L5.29289 9.70711C4.90237 9.31658 4.90237 8.68342 5.29289 8.29289L8.29289 5.29289C8.68342 4.90237 9.31658 4.90237 9.70711 5.29289C10.0976 5.68342 10.0976 6.31658 9.70711 6.70711L8.41421 8L14 8L14 4.6C14 3.71634 13.2837 3 12.4 3L6 3C5.44772 3 5 3.44772 5 4C5 4.55228 4.55228 5 4 5C3.44772 5 3 4.55229 3 4C3 2.34315 4.34315 1 6 1H12.4C14.3882 1 16 2.61178 16 4.6L16 13.4C16 15.3882 14.3882 17 12.4 17H6C4.34315 17 3 15.6569 3 14C3 13.4477 3.44772 13 4 13C4.55229 13 5 13.4477 5 14C5 14.5523 5.44772 15 6 15H12.4C13.2837 15 14 14.2837 14 13.4L14 10Z" fill="#F83C3C"/>
</svg>
