<svg width="18" height="18" viewBox="0 0 18 18" fill="none" xmlns="http://www.w3.org/2000/svg">
<path d="M2 4C2 3.44772 2.44772 3 3 3H15C15.5523 3 16 3.44772 16 4C16 4.55228 15.5523 5 15 5H3C2.44772 5 2 4.55228 2 4Z" fill="black"/>
<path d="M4 14C4 13.4477 4.44772 13 5 13H15C15.5523 13 16 13.4477 16 14C16 14.5523 15.5523 15 15 15H5C4.44772 15 4 14.5523 4 14Z" fill="black"/>
<path d="M8 9C8 8.44772 8.44772 8 9 8H15C15.5523 8 16 8.44772 16 9C16 9.55228 15.5523 10 15 10H9C8.44772 10 8 9.55228 8 9Z" fill="black"/>
</svg>
