<svg width="18" height="18" viewBox="0 0 18 18" fill="none" xmlns="http://www.w3.org/2000/svg">
<path fill-rule="evenodd" clip-rule="evenodd" d="M9 3C7.89543 3 7 3.89543 7 5C7 6.10457 7.89543 7 9 7C10.1046 7 11 6.10457 11 5C11 3.89543 10.1046 3 9 3ZM5 5C5 2.79086 6.79086 1 9 1C11.2091 1 13 2.79086 13 5C13 6.29242 12.3871 7.44168 11.436 8.17293C14.0563 8.81647 16 11.1812 16 14C16 15.6569 14.6569 17 13 17H5C3.34315 17 2 15.6569 2 14C2 11.1812 3.94375 8.81647 6.564 8.17293C5.61295 7.44168 5 6.29242 5 5ZM8 10C5.79086 10 4 11.7909 4 14C4 14.5523 4.44772 15 5 15H13C13.5523 15 14 14.5523 14 14C14 11.7909 12.2091 10 10 10H8Z" fill="black"/>
</svg>
