<svg width="18" height="18" viewBox="0 0 18 18" fill="none" xmlns="http://www.w3.org/2000/svg">
<path fill-rule="evenodd" clip-rule="evenodd" d="M5 4C5 2.34315 6.34315 1 8 1H10C11.6569 1 13 2.34315 13 4H14C15.6569 4 17 5.34315 17 7V13C17 14.6569 15.6569 16 14 16H4C2.34315 16 1 14.6569 1 13V7C1 5.34315 2.34315 4 4 4H5ZM5 6H4C3.44772 6 3 6.44772 3 7V13C3 13.5523 3.44772 14 4 14H14C14.5523 14 15 13.5523 15 13V7C15 6.44772 14.5523 6 14 6H13C13 7.65685 11.6569 9 10 9H8C6.34315 9 5 7.65685 5 6ZM8 3C7.44772 3 7 3.44772 7 4V6C7 6.55228 7.44772 7 8 7H10C10.5523 7 11 6.55228 11 6V4C11 3.44772 10.5523 3 10 3H8Z" fill="black"/>
</svg>
