<svg width="18" height="18" viewBox="0 0 18 18" fill="none" xmlns="http://www.w3.org/2000/svg">
<path fill-rule="evenodd" clip-rule="evenodd" d="M13.8682 1.50386C13.6902 1.19229 13.3589 1 13 1H5C4.64114 1 4.3098 1.19229 4.13176 1.50386L0.131758 8.50382C-0.0439186 8.81125 -0.0439186 9.18867 0.131756 9.4961L4.13176 16.4961C4.3098 16.8077 4.64114 17 5 17H13C13.3589 17 13.6902 16.8077 13.8682 16.4961L17.8682 9.4961C18.0439 9.18867 18.0439 8.81125 17.8682 8.50382L13.8682 1.50386ZM12.4197 3L15.8482 8.99997L12.4197 15H5.58032L2.15175 8.99997L5.58032 3H12.4197ZM9 8C9.55228 8 10 8.44772 10 9C10 9.55228 9.55228 10 9 10C8.44772 10 8 9.55228 8 9C8 8.44772 8.44772 8 9 8ZM12 9C12 7.34315 10.6569 6 9 6C7.34315 6 6 7.34315 6 9C6 10.6569 7.34315 12 9 12C10.6569 12 12 10.6569 12 9Z" fill="black"/>
</svg>
