<svg width="18" height="18" viewBox="0 0 18 18" fill="none" xmlns="http://www.w3.org/2000/svg">
<path d="M8 10C8 9.44772 8.44772 9 9 9C9.55228 9 10 9.44772 10 10V12C10 12.5523 9.55228 13 9 13C8.44772 13 8 12.5523 8 12V10Z" fill="black"/>
<path fill-rule="evenodd" clip-rule="evenodd" d="M10 10V12C10 12.5523 9.55228 13 9 13C8.44772 13 8 12.5523 8 12V10C8 9.44772 8.44772 9 9 9C9.55228 9 10 9.44772 10 10Z" fill="black"/>
<path fill-rule="evenodd" clip-rule="evenodd" d="M5 5C3.34315 5 2 6.34315 2 8V14C2 15.6569 3.34315 17 5 17H13C14.6569 17 16 15.6569 16 14V8C16 6.34315 14.6569 5 13 5V4C13 2.34315 11.6569 1 10 1H8C6.34315 1 5 2.34315 5 4V5ZM5 7C4.44772 7 4 7.44772 4 8V14C4 14.5523 4.44772 15 5 15H13C13.5523 15 14 14.5523 14 14V8C14 7.44772 13.5523 7 13 7H12H6H5ZM8 3C7.44772 3 7 3.44772 7 4V5H11V4C11 3.44772 10.5523 3 10 3H8Z" fill="black"/>
</svg>
