<svg width="18" height="18" viewBox="0 0 18 18" fill="none" xmlns="http://www.w3.org/2000/svg">
<path fill-rule="evenodd" clip-rule="evenodd" d="M6.19922 5.99922C6.19922 4.45282 7.45282 3.19922 8.99922 3.19922C10.5456 3.19922 11.7992 4.45282 11.7992 5.99922C11.7992 6.7976 11.4651 7.51793 10.929 8.028C13.1836 8.82321 14.7992 10.9725 14.7992 13.4992V13.9992C14.7992 14.441 14.441 14.7992 13.9992 14.7992H3.99922C3.55739 14.7992 3.19922 14.441 3.19922 13.9992V13.4992C3.19922 10.9725 4.81487 8.82321 7.06943 8.028C6.53336 7.51793 6.19922 6.7976 6.19922 5.99922ZM7.79922 5.99922C7.79922 5.33648 8.33648 4.79922 8.99922 4.79922C9.66196 4.79922 10.1992 5.33648 10.1992 5.99922C10.1992 6.66196 9.66196 7.19922 8.99922 7.19922C8.33648 7.19922 7.79922 6.66196 7.79922 5.99922ZM13.1887 13.1992H4.80977C4.96359 11.0196 6.78049 9.29922 8.99922 9.29922C11.2179 9.29922 13.0348 11.0196 13.1887 13.1992Z" fill="black"/>
</svg>
